<?xml version="1.0" standalone="no"?>
<!DOCTYPE svg PUBLIC "-//W3C//DTD SVG 20010904//EN"
 "http://www.w3.org/TR/2001/REC-SVG-20010904/DTD/svg10.dtd">
<svg version="1.0" xmlns="http://www.w3.org/2000/svg"
 width="1280.000000pt" height="770.000000pt" viewBox="0 0 1280.000000 770.000000"
 preserveAspectRatio="xMidYMid meet">
<metadata>
Created by potrace 1.15, written by Peter Selinger 2001-2017
</metadata>
<g transform="translate(0.000000,770.000000) scale(0.100000,-0.100000)"
fill="#000000" stroke="none">
<path d="M4150 7693 c-28 -11 -59 -46 -70 -78 -10 -31 -11 -32 -48 -22 -48 13
-87 3 -118 -28 l-24 -24 0 25 c0 53 -61 114 -114 114 -35 0 -85 -30 -100 -59
-54 -103 51 -209 154 -156 16 8 34 23 39 32 9 15 10 14 11 -10 0 -57 60 -117
115 -117 52 0 115 60 115 109 0 21 1 21 25 5 39 -25 103 -13 138 26 60 67 20
176 -68 185 -22 3 -47 2 -55 -2z"/>
<path d="M5057 7560 c-33 -26 -48 -79 -36 -124 23 -82 126 -107 189 -45 25 26
30 38 30 79 0 41 -5 53 -31 79 -26 26 -38 31 -78 31 -34 0 -56 -6 -74 -20z"/>
<path d="M8374 7520 c-37 -15 -64 -59 -64 -104 0 -103 117 -151 191 -80 91 87
-9 232 -127 184z"/>
<path d="M4842 7494 c-40 -20 -62 -60 -62 -110 0 -52 53 -104 107 -104 49 0
96 29 112 69 40 95 -65 192 -157 145z"/>
<path d="M3423 7484 c-33 -16 -63 -66 -63 -104 0 -55 57 -110 115 -110 119 0
158 171 50 216 -43 18 -62 17 -102 -2z"/>
<path d="M9884 7416 c-28 -28 -34 -42 -34 -75 0 -76 80 -136 148 -110 65 25
97 90 72 150 -19 45 -56 69 -107 69 -38 0 -50 -5 -79 -34z"/>
<path d="M4374 7420 c-37 -15 -64 -59 -64 -104 0 -103 117 -151 192 -80 28 28
28 28 28 5 0 -13 15 -38 34 -57 27 -27 42 -34 73 -34 l38 0 -3 -45 c-4 -40 0
-49 31 -80 30 -30 42 -35 80 -35 132 0 159 172 34 219 -16 6 -39 8 -52 5 -22
-6 -24 -4 -16 23 11 38 -3 84 -35 114 -35 33 -112 34 -146 2 -30 -28 -38 -29
-38 -4 0 10 -16 33 -35 50 -37 32 -77 39 -121 21z"/>
<path d="M3664 7346 c-28 -28 -34 -42 -34 -76 0 -53 29 -95 76 -110 63 -21
125 13 145 79 22 73 -34 141 -117 141 -28 0 -44 -8 -70 -34z"/>
<path d="M5024 7276 c-80 -36 -98 -132 -35 -188 68 -61 176 -22 187 67 10 87
-75 155 -152 121z"/>
<path d="M4190 7243 c-55 -38 -72 -91 -46 -145 54 -114 216 -73 216 54 0 82
-103 137 -170 91z"/>
<path d="M5239 7232 c-45 -40 -52 -106 -15 -149 34 -41 83 -58 122 -43 67 26
99 90 74 151 -30 73 -122 94 -181 41z"/>
<path d="M2543 7238 c-78 -21 -109 -119 -55 -178 53 -60 136 -55 179 9 27 39
29 71 9 110 -27 52 -77 74 -133 59z"/>
<path d="M3504 7176 c-44 -19 -64 -53 -64 -104 0 -37 6 -50 34 -78 38 -38 85
-45 134 -20 48 25 70 88 48 139 -25 61 -94 89 -152 63z"/>
<path d="M8893 7150 c-33 -19 -63 -66 -63 -95 0 -32 33 -86 61 -101 l29 -14
-31 -28 c-45 -40 -51 -106 -15 -149 54 -64 134 -62 185 3 40 51 11 150 -49
169 -15 5 -12 11 16 39 28 28 34 41 34 78 0 50 -18 82 -60 103 -39 20 -69 19
-107 -5z"/>
<path d="M4445 7126 c-113 -49 -76 -216 47 -216 32 0 47 7 74 34 28 28 34 41
34 78 0 52 -21 85 -66 104 -40 17 -50 17 -89 0z"/>
<path d="M11472 7110 c-104 -63 -38 -228 82 -206 72 14 111 90 83 159 -27 63
-102 85 -165 47z"/>
<path d="M11724 7091 c-38 -17 -64 -60 -64 -108 0 -38 5 -50 34 -79 27 -27 42
-34 74 -34 79 0 138 83 109 152 -8 18 -24 41 -35 51 -24 22 -87 31 -118 18z"/>
<path d="M3944 7056 c-29 -29 -34 -41 -34 -79 0 -132 172 -159 219 -35 27 72
-31 148 -112 148 -31 0 -46 -7 -73 -34z"/>
<path d="M11954 7056 c-29 -29 -34 -41 -34 -79 0 -75 61 -127 133 -113 46 9
97 67 97 111 0 31 -30 81 -59 98 -48 28 -98 22 -137 -17z"/>
<path d="M6291 7047 c-40 -20 -66 -64 -65 -109 1 -35 8 -48 38 -75 51 -47 104
-47 152 1 28 28 34 41 34 78 0 50 -18 82 -60 103 -35 18 -67 19 -99 2z"/>
<path d="M10410 7043 c-60 -18 -90 -56 -90 -113 0 -69 45 -110 119 -110 77 0
128 79 98 152 -21 50 -83 85 -127 71z"/>
<path d="M4870 7013 c-62 -55 -47 -153 28 -189 43 -20 87 -12 123 22 l27 25 6
-34 c16 -87 128 -122 191 -59 74 73 23 192 -82 192 -36 0 -50 -6 -74 -29 -26
-26 -29 -27 -29 -10 0 28 -26 75 -52 93 -37 26 -103 21 -138 -11z"/>
<path d="M724 6986 c-38 -38 -45 -86 -19 -135 14 -28 68 -61 100 -61 43 0 102
51 111 95 13 72 -43 135 -122 135 -28 0 -44 -8 -70 -34z"/>
<path d="M10782 6974 c-27 -19 -52 -65 -52 -96 0 -30 33 -84 61 -99 13 -6 41
-12 63 -12 33 0 45 6 73 36 47 52 47 105 -1 153 -28 28 -41 34 -78 34 -24 0
-54 -7 -66 -16z"/>
<path d="M11210 6973 c-60 -18 -90 -56 -90 -113 0 -68 45 -110 116 -110 79 0
131 80 101 152 -21 50 -83 85 -127 71z"/>
<path d="M2102 6954 c-27 -19 -52 -65 -52 -96 0 -59 81 -127 133 -113 67 19
97 56 97 121 0 28 -8 44 -34 70 -28 28 -41 34 -78 34 -24 0 -54 -7 -66 -16z"/>
<path d="M4183 6941 c-40 -25 -53 -49 -53 -101 0 -34 6 -48 34 -76 46 -46 100
-48 149 -4 41 35 52 79 33 123 -29 69 -103 96 -163 58z"/>
<path d="M4650 6933 c-74 -38 -89 -126 -30 -185 23 -23 37 -28 75 -28 90 0
144 93 99 169 -31 53 -90 71 -144 44z"/>
<path d="M3218 6924 c-53 -28 -72 -98 -43 -154 40 -78 160 -78 200 0 53 103
-55 210 -157 154z"/>
<path d="M8604 6924 c-57 -28 -79 -96 -49 -154 21 -41 53 -60 100 -60 121 0
158 163 49 215 -40 19 -61 19 -100 -1z"/>
<path d="M9660 6909 c-66 -27 -93 -88 -67 -152 18 -42 60 -67 113 -67 28 0 44
8 70 34 26 26 34 42 34 70 0 51 -23 90 -64 110 -39 18 -51 19 -86 5z"/>
<path d="M489 6885 c-58 -31 -71 -114 -28 -169 64 -82 199 -35 199 69 0 92
-90 144 -171 100z"/>
<path d="M11503 6869 c-43 -13 -73 -57 -73 -109 0 -57 50 -110 104 -110 88 0
144 77 112 153 -24 58 -82 84 -143 66z"/>
<path d="M4425 6856 c-42 -18 -65 -57 -65 -107 0 -56 50 -109 104 -109 52 0
90 23 111 67 16 33 16 41 4 77 -24 67 -94 100 -154 72z"/>
<path d="M995 6850 c-33 -13 -65 -55 -71 -92 -12 -69 44 -128 122 -128 51 0
104 53 104 104 0 87 -81 147 -155 116z"/>
<path d="M9340 6849 c-63 -26 -94 -91 -70 -150 19 -45 56 -69 107 -69 38 0 50
5 79 34 26 26 34 42 34 70 0 51 -23 90 -64 110 -39 18 -51 19 -86 5z"/>
<path d="M11754 6816 c-26 -26 -34 -42 -34 -70 0 -52 23 -90 66 -111 31 -14
43 -15 75 -6 66 20 100 82 79 146 -15 45 -61 75 -113 75 -31 0 -46 -7 -73 -34z"/>
<path d="M10158 6824 c-76 -41 -74 -159 2 -199 57 -29 121 -10 154 45 58 99
-55 210 -156 154z"/>
<path d="M10524 6830 c-88 -35 -84 -173 5 -210 85 -35 179 50 151 136 -22 67
-92 100 -156 74z"/>
<path d="M4840 6767 c-13 -7 -35 -28 -48 -47 -33 -48 -25 -94 24 -139 33 -30
41 -33 82 -28 114 13 143 160 42 212 -35 18 -67 19 -100 2z"/>
<path d="M2734 6736 c-26 -26 -34 -42 -34 -70 0 -73 47 -121 116 -119 75 2
126 73 105 144 -16 52 -53 79 -108 79 -38 0 -50 -5 -79 -34z"/>
<path d="M9854 6750 c-36 -14 -64 -59 -64 -102 0 -104 122 -155 193 -80 36 38
43 81 22 126 -27 56 -91 80 -151 56z"/>
<path d="M10990 6722 c-73 -74 -26 -196 76 -196 68 0 114 48 114 120 0 28 -8
44 -34 70 -29 29 -41 34 -81 34 -38 0 -52 -5 -75 -28z"/>
<path d="M750 6723 c-31 -12 -70 -58 -76 -90 -20 -106 106 -177 187 -105 24
21 32 39 36 74 5 41 2 49 -28 82 -34 37 -84 53 -119 39z"/>
<path d="M9034 6676 c-27 -27 -34 -42 -34 -74 0 -105 136 -156 200 -75 41 53
38 106 -10 154 -23 24 -37 29 -75 29 -40 0 -52 -5 -81 -34z"/>
<path d="M11292 6687 c-54 -30 -73 -109 -39 -161 63 -95 207 -51 207 64 0 34
-6 48 -34 76 -27 27 -42 34 -72 34 -22 -1 -49 -6 -62 -13z"/>
<path d="M1188 6674 c-76 -41 -74 -159 2 -199 59 -31 126 -10 154 49 20 42 20
59 1 100 -28 59 -99 82 -157 50z"/>
<path d="M8790 6683 c-30 -11 -70 -57 -76 -88 -21 -112 122 -181 199 -95 75
84 -17 222 -123 183z"/>
<path d="M10744 6656 c-38 -38 -45 -86 -19 -135 19 -37 77 -65 119 -57 76 14
117 109 77 174 -23 36 -55 52 -108 52 -27 0 -43 -8 -69 -34z"/>
<path d="M2392 6664 c-32 -16 -62 -58 -62 -87 0 -10 -13 -13 -55 -9 -52 4 -56
3 -90 -31 -27 -27 -35 -43 -35 -71 0 -72 46 -120 114 -120 45 0 85 28 104 73
16 37 16 37 67 33 45 -4 54 -1 82 25 56 53 53 131 -7 174 -37 27 -80 32 -118
13z"/>
<path d="M7528 6660 c-75 -58 -55 -165 36 -200 42 -16 81 -4 116 36 44 50 42
104 -4 150 -29 29 -41 34 -79 34 -29 0 -53 -7 -69 -20z"/>
<path d="M8490 6664 c-35 -25 -48 -44 -56 -80 -10 -54 37 -119 93 -130 106
-20 177 106 105 187 -35 39 -103 50 -142 23z"/>
<path d="M4249 6655 c-50 -27 -67 -116 -31 -164 62 -84 202 -41 205 62 3 92
-92 147 -174 102z"/>
<path d="M9543 6655 c-111 -48 -75 -215 47 -215 68 0 110 45 110 118 0 47 -22
80 -66 98 -41 17 -50 17 -91 -1z"/>
<path d="M5070 6653 c-30 -11 -70 -57 -76 -88 -13 -72 43 -135 122 -135 51 0
104 53 104 104 0 85 -77 146 -150 119z"/>
<path d="M234 6616 c-106 -106 49 -263 157 -160 76 73 22 194 -86 194 -29 0
-45 -8 -71 -34z"/>
<path d="M4524 6606 c-26 -26 -34 -42 -34 -71 0 -53 27 -92 77 -111 39 -15 44
-15 80 2 77 39 93 126 33 186 -23 23 -37 28 -75 28 -40 0 -52 -5 -81 -34z"/>
<path d="M11613 6610 c-29 -12 -63 -67 -63 -103 0 -67 70 -125 134 -113 42 8
85 54 92 98 15 87 -77 153 -163 118z"/>
<path d="M1564 6576 c-23 -23 -34 -43 -34 -64 l0 -30 -45 17 c-43 15 -47 15
-83 -4 -20 -11 -46 -36 -56 -56 -40 -75 17 -159 108 -159 50 0 106 52 106 99
0 29 13 41 24 22 10 -15 65 -21 94 -10 65 25 97 90 72 150 -19 45 -56 69 -107
69 -38 0 -50 -5 -79 -34z"/>
<path d="M10289 6585 c-50 -27 -67 -116 -31 -164 10 -14 36 -32 58 -40 74 -26
145 26 146 107 1 68 -45 112 -115 112 -18 -1 -44 -7 -58 -15z"/>
<path d="M11905 6581 c-27 -11 -51 -40 -65 -75 -15 -39 2 -88 43 -122 26 -22
38 -25 76 -21 113 13 142 160 41 212 -32 16 -64 18 -95 6z"/>
<path d="M3200 6567 c-13 -7 -35 -28 -48 -47 -33 -48 -25 -94 24 -139 33 -30
41 -33 82 -28 114 13 143 160 42 212 -35 18 -67 19 -100 2z"/>
<path d="M484 6536 c-28 -28 -34 -42 -34 -76 0 -34 6 -48 34 -76 29 -29 41
-34 81 -34 38 0 52 5 75 29 52 51 52 111 0 162 -23 24 -37 29 -75 29 -40 0
-52 -5 -81 -34z"/>
<path d="M9272 6557 c-34 -19 -55 -55 -56 -96 -2 -77 72 -134 145 -112 52 16
79 53 79 108 0 38 -5 50 -34 79 -27 27 -42 34 -72 34 -22 -1 -49 -6 -62 -13z"/>
<path d="M10040 6559 c-63 -26 -94 -91 -70 -150 19 -45 56 -69 107 -69 38 0
50 5 79 34 26 26 34 42 34 71 0 48 -26 91 -66 110 -37 17 -49 18 -84 4z"/>
<path d="M10577 6550 c-63 -19 -94 -76 -77 -140 18 -68 95 -100 165 -68 60 27
74 125 26 177 -16 17 -36 31 -44 31 -9 0 -21 2 -29 4 -7 2 -26 0 -41 -4z"/>
<path d="M958 6534 c-53 -28 -72 -98 -43 -154 40 -78 160 -78 200 0 53 103
-55 210 -157 154z"/>
<path d="M4788 6494 c-76 -41 -74 -159 2 -199 59 -31 126 -10 154 49 20 42 20
59 1 100 -28 59 -99 82 -157 50z"/>
<path d="M9763 6503 c-12 -2 -36 -20 -53 -39 -44 -50 -42 -104 4 -150 29 -29
41 -34 79 -34 132 0 159 172 34 219 -16 6 -31 10 -35 10 -4 -1 -17 -4 -29 -6z"/>
<path d="M1814 6456 c-29 -29 -34 -41 -34 -79 0 -54 26 -91 76 -107 63 -21
125 13 145 79 21 72 -36 141 -116 141 -29 0 -45 -8 -71 -34z"/>
<path d="M11139 6447 c-21 -14 -39 -38 -48 -63 -12 -36 -12 -44 4 -77 21 -44
59 -67 111 -67 54 0 104 53 104 109 0 51 -24 89 -67 107 -45 19 -65 18 -104
-9z"/>
<path d="M8943 6430 c-40 -24 -53 -48 -53 -98 0 -99 122 -147 194 -76 34 35
42 83 22 126 -31 64 -102 85 -163 48z"/>
<path d="M11408 6420 c-79 -62 -49 -183 51 -205 65 -14 131 46 131 120 0 29
-8 45 -34 71 -29 29 -41 34 -79 34 -29 0 -53 -7 -69 -20z"/>
<path d="M4242 6414 c-27 -19 -52 -65 -52 -96 0 -59 81 -127 133 -113 67 19
97 56 97 121 0 28 -8 44 -34 70 -28 28 -41 34 -78 34 -24 0 -54 -7 -66 -16z"/>
<path d="M8604 6396 c-29 -29 -34 -41 -34 -81 0 -38 5 -52 28 -75 37 -37 89
-47 131 -26 111 58 72 216 -54 216 -29 0 -45 -8 -71 -34z"/>
<path d="M10903 6416 c-38 -17 -63 -61 -63 -112 0 -51 53 -104 104 -104 53 0
95 25 113 67 40 97 -58 192 -154 149z"/>
<path d="M734 6391 c-84 -51 -57 -188 42 -207 42 -8 100 20 119 57 26 49 19
97 -19 135 -40 40 -92 46 -142 15z"/>
<path d="M8038 6394 c-56 -30 -73 -104 -38 -161 40 -66 150 -66 191 1 62 102
-48 217 -153 160z"/>
<path d="M8334 6391 c-60 -36 -68 -124 -17 -175 72 -73 193 -20 193 84 0 87
-99 138 -176 91z"/>
<path d="M4553 6373 c-34 -7 -83 -68 -83 -104 0 -69 49 -119 117 -119 61 0
103 39 110 102 5 42 2 49 -28 81 -34 35 -72 49 -116 40z"/>
<path d="M1160 6342 c-73 -74 -28 -192 74 -195 68 -2 116 47 116 118 0 29 -8
45 -34 71 -29 29 -41 34 -81 34 -38 0 -52 -5 -75 -28z"/>
<path d="M3434 6336 c-48 -48 -48 -101 -1 -153 28 -30 40 -36 73 -36 51 0 80
16 104 56 24 38 25 68 5 107 -21 42 -53 60 -103 60 -37 0 -50 -6 -78 -34z"/>
<path d="M9500 6353 c-74 -38 -89 -126 -30 -185 23 -23 37 -28 75 -28 40 0 52
5 81 34 37 37 45 82 22 130 -24 53 -93 76 -148 49z"/>
<path d="M11775 6361 c-76 -32 -90 -140 -24 -195 46 -39 101 -36 145 8 28 28
34 41 34 78 0 50 -18 82 -60 103 -32 16 -64 18 -95 6z"/>
<path d="M308 6344 c-53 -28 -72 -98 -43 -154 40 -78 160 -78 200 0 53 103
-55 210 -157 154z"/>
<path d="M9196 6299 c-44 -38 -54 -83 -32 -131 29 -61 96 -84 156 -53 41 21
60 53 60 100 0 100 -110 150 -184 84z"/>
<path d="M10134 6310 c-60 -24 -85 -121 -44 -172 41 -53 125 -61 168 -15 51
54 49 120 -5 167 -35 31 -76 38 -119 20z"/>
<path d="M10393 6305 c-80 -34 -82 -159 -3 -200 77 -40 170 14 170 100 0 59
-55 116 -112 115 -13 -1 -37 -7 -55 -15z"/>
<path d="M10683 6305 c-84 -36 -92 -159 -12 -200 49 -26 97 -19 135 19 28 28
34 41 34 78 0 52 -21 85 -66 104 -41 17 -50 17 -91 -1z"/>
<path d="M58 6294 c-54 -29 -73 -101 -41 -155 17 -28 67 -59 96 -59 14 0 14
-3 1 -27 -60 -117 87 -229 180 -137 32 33 43 84 25 125 -14 35 -62 69 -96 69
-27 0 -28 7 -8 34 8 11 15 33 15 48 0 89 -94 145 -172 102z"/>
<path d="M1634 6276 c-26 -26 -34 -42 -34 -70 0 -53 25 -95 67 -113 47 -19 92
-10 127 26 73 77 20 191 -90 191 -28 0 -44 -8 -70 -34z"/>
<path d="M4929 6296 c-36 -21 -63 -79 -55 -120 8 -42 54 -85 98 -92 101 -17
169 110 100 187 -33 37 -100 49 -143 25z"/>
<path d="M9863 6275 c-83 -36 -91 -152 -13 -198 47 -28 97 -22 136 17 28 28
34 41 34 78 0 50 -18 82 -60 103 -35 18 -55 18 -97 0z"/>
<path d="M2002 6232 c-38 -35 -48 -79 -28 -125 48 -115 216 -82 216 42 0 69
-44 111 -118 111 -30 0 -48 -7 -70 -28z"/>
<path d="M528 6234 c-63 -33 -75 -114 -27 -168 53 -61 142 -55 182 13 59 100
-52 211 -155 155z"/>
<path d="M982 6217 c-34 -19 -55 -55 -56 -96 -2 -77 72 -134 145 -112 52 16
79 53 79 108 0 38 -5 50 -34 79 -27 27 -42 34 -72 34 -22 -1 -49 -6 -62 -13z"/>
<path d="M1424 6215 c-106 -54 -69 -215 49 -215 49 0 81 19 102 60 24 47 19
86 -17 125 -39 42 -88 53 -134 30z"/>
<path d="M2344 6216 c-45 -20 -74 -62 -74 -108 0 -32 7 -47 34 -74 29 -29 41
-34 81 -34 139 0 152 193 15 223 -14 3 -39 0 -56 -7z"/>
<path d="M8758 6204 c-100 -54 -57 -214 57 -214 55 0 115 61 115 115 0 31 -30
81 -59 98 -35 21 -77 21 -113 1z"/>
<path d="M4322 6187 c-34 -20 -55 -55 -55 -98 0 -78 71 -132 144 -110 52 16
79 53 79 108 0 38 -5 50 -34 79 -27 27 -42 34 -72 34 -22 -1 -49 -6 -62 -13z"/>
<path d="M11238 6180 c-14 -10 -31 -33 -37 -49 l-13 -29 -35 24 c-41 28 -60
29 -108 10 -33 -14 -65 -59 -65 -91 0 -14 -4 -14 -25 4 -55 42 -134 32 -170
-23 -35 -53 -17 -134 37 -162 49 -25 96 -18 134 20 19 19 34 43 34 55 0 26 5
26 37 1 52 -41 143 -16 169 46 l15 35 25 -20 c37 -29 78 -35 116 -17 110 53
75 216 -46 216 -28 0 -52 -7 -68 -20z"/>
<path d="M4709 6173 c-127 -79 -22 -267 111 -198 34 18 60 62 60 102 -1 84
-100 140 -171 96z"/>
<path d="M2974 6170 c-60 -24 -85 -121 -44 -172 62 -79 183 -49 205 51 18 83
-78 155 -161 121z"/>
<path d="M2638 6150 c-75 -58 -55 -165 36 -200 65 -24 146 37 146 112 0 32 -7
47 -34 74 -29 29 -41 34 -79 34 -29 0 -53 -7 -69 -20z"/>
<path d="M9028 6132 c-38 -23 -61 -75 -54 -117 8 -42 49 -83 92 -91 120 -22
186 143 82 206 -40 24 -84 25 -120 2z"/>
<path d="M8412 6112 c-75 -70 -30 -192 72 -195 92 -3 147 93 99 173 -34 57
-121 69 -171 22z"/>
<path d="M9655 6131 c-27 -12 -51 -40 -65 -75 -15 -39 2 -88 43 -122 26 -22
38 -25 76 -21 132 15 137 209 6 222 -22 3 -49 1 -60 -4z"/>
<path d="M790 6109 c-64 -26 -94 -91 -70 -150 19 -45 56 -69 107 -69 88 0 142
94 97 169 -28 47 -87 69 -134 50z"/>
<path d="M8070 6102 c-72 -36 -86 -125 -28 -183 24 -24 38 -29 75 -29 43 0 45
-1 30 -18 -28 -31 -39 -72 -27 -107 23 -69 97 -102 158 -71 43 22 62 54 62
104 0 37 -6 50 -35 79 -31 31 -40 35 -79 32 l-44 -4 24 28 c47 55 24 145 -43
173 -42 18 -51 18 -93 -4z"/>
<path d="M1823 6085 c-82 -36 -90 -160 -11 -201 56 -29 134 -8 157 43 16 35
13 95 -5 122 -16 23 -71 51 -96 51 -7 -1 -27 -7 -45 -15z"/>
<path d="M7830 6082 c-22 -10 -42 -32 -54 -55 -37 -77 17 -157 108 -157 53 0
106 52 106 104 0 52 -25 95 -65 112 -44 18 -53 18 -95 -4z"/>
<path d="M9342 6073 c-39 -19 -62 -59 -62 -109 0 -28 8 -44 34 -70 26 -26 42
-34 70 -34 133 0 171 155 54 216 -35 18 -55 17 -96 -3z"/>
<path d="M6568 6054 c-76 -41 -74 -159 2 -199 78 -41 171 15 170 102 -1 84
-97 138 -172 97z"/>
<path d="M10570 6056 c-40 -13 -80 -66 -80 -106 0 -40 40 -93 80 -106 45 -15
88 -2 123 36 74 82 -15 211 -123 176z"/>
<path d="M1246 6050 c-66 -20 -101 -90 -76 -151 19 -45 56 -69 107 -69 92 0
147 105 91 175 -17 22 -77 58 -90 54 -2 0 -16 -5 -32 -9z"/>
<path d="M10003 6046 c-38 -17 -63 -61 -63 -112 0 -52 53 -104 107 -104 87 0
142 76 110 152 -26 62 -94 90 -154 64z"/>
<path d="M6904 6016 c-26 -26 -34 -42 -34 -70 0 -52 23 -90 65 -110 43 -21 84
-14 125 20 79 67 27 194 -80 194 -34 0 -48 -6 -76 -34z"/>
<path d="M10250 6023 c-61 -55 -48 -153 26 -188 68 -32 148 10 160 87 17 101
-110 169 -186 101z"/>
<path d="M4506 6020 c-63 -19 -96 -83 -76 -145 16 -49 53 -75 107 -75 38 0 50
5 79 34 26 26 34 42 34 70 0 55 -23 91 -70 110 -22 9 -41 16 -43 15 -1 0 -15
-5 -31 -9z"/>
<path d="M3468 5994 c-54 -29 -73 -101 -41 -155 17 -29 67 -59 97 -59 35 0 85
30 100 59 54 104 -54 211 -156 155z"/>
<path d="M4210 5994 c-63 -22 -90 -57 -90 -120 0 -28 8 -44 34 -70 29 -29 41
-34 79 -34 139 0 154 196 17 224 -14 3 -32 3 -40 0z"/>
<path d="M1580 5983 c-62 -19 -90 -56 -90 -119 0 -54 53 -104 110 -104 140 0
158 194 20 223 -14 3 -32 3 -40 0z"/>
<path d="M2114 5971 c-37 -22 -59 -78 -49 -119 3 -15 18 -39 32 -54 73 -76
193 -22 193 88 0 28 -8 44 -34 70 -40 40 -92 46 -142 15z"/>
<path d="M7574 5974 c-81 -40 -84 -158 -4 -199 57 -30 127 -10 155 45 30 57
10 127 -45 155 -36 19 -66 19 -106 -1z"/>
<path d="M8618 5970 c-53 -41 -61 -125 -15 -168 55 -52 120 -49 168 6 28 31
31 40 26 81 -7 62 -49 101 -111 101 -28 0 -52 -7 -68 -20z"/>
<path d="M2448 5951 c-29 -26 -33 -36 -33 -79 0 -39 5 -56 24 -76 36 -38 82
-50 123 -33 53 23 73 52 73 109 0 43 -4 53 -33 79 -46 41 -108 41 -154 0z"/>
<path d="M8854 5896 c-28 -28 -34 -42 -34 -76 0 -94 116 -146 189 -84 80 67
31 194 -76 194 -38 0 -50 -5 -79 -34z"/>
<path d="M11667 5909 c-82 -64 -37 -199 67 -202 69 -2 116 46 116 119 0 28 -8
44 -34 70 -29 29 -41 34 -79 34 -30 0 -53 -7 -70 -21z"/>
<path d="M964 5876 c-29 -29 -34 -41 -34 -79 0 -147 219 -150 223 -3 2 69 -46
116 -119 116 -28 0 -44 -8 -70 -34z"/>
<path d="M9514 5881 c-37 -22 -59 -78 -49 -119 9 -38 53 -81 91 -88 42 -8 100
20 119 57 26 49 19 97 -19 135 -40 40 -92 46 -142 15z"/>
<path d="M9820 5889 c-64 -26 -94 -91 -70 -150 19 -45 56 -69 107 -69 88 0
142 94 97 169 -28 47 -87 69 -134 50z"/>
<path d="M9142 5857 c-34 -20 -55 -55 -55 -98 0 -78 71 -132 144 -110 52 16
79 53 79 108 0 38 -5 50 -34 79 -27 27 -42 34 -72 34 -22 -1 -49 -6 -62 -13z"/>
<path d="M6784 5816 c-29 -29 -34 -41 -34 -81 0 -38 5 -52 28 -75 77 -76 198
-25 196 82 -1 35 -8 48 -38 75 -51 47 -104 47 -152 -1z"/>
<path d="M7873 5831 c-40 -25 -53 -49 -53 -101 0 -57 50 -110 104 -110 52 0
90 23 111 66 47 99 -69 203 -162 145z"/>
<path d="M1865 5831 c-77 -33 -90 -140 -24 -195 109 -92 249 75 145 173 -26
25 -89 36 -121 22z"/>
<path d="M7333 5825 c-38 -16 -63 -60 -63 -111 0 -28 8 -44 34 -70 26 -26 42
-34 70 -34 52 0 90 23 111 67 16 33 16 41 4 77 -15 44 -67 86 -103 86 -12 -1
-35 -7 -53 -15z"/>
<path d="M8384 5806 c-38 -38 -45 -86 -19 -135 14 -28 68 -61 100 -61 43 0
102 51 111 95 13 72 -43 135 -122 135 -28 0 -44 -8 -70 -34z"/>
<path d="M6354 5801 c-37 -22 -59 -78 -49 -119 9 -38 53 -81 91 -88 42 -8 100
20 119 57 26 49 19 97 -19 135 -40 40 -92 46 -142 15z"/>
<path d="M10744 5786 c-101 -101 37 -254 150 -165 58 46 54 142 -8 180 -50 31
-102 25 -142 -15z"/>
<path d="M5194 5796 c-43 -19 -64 -53 -64 -104 0 -37 6 -50 34 -78 26 -26 42
-34 70 -34 73 0 121 47 119 114 -1 45 -18 73 -56 96 -37 23 -60 24 -103 6z"/>
<path d="M10424 5776 c-29 -29 -34 -41 -34 -81 0 -146 219 -147 223 -1 2 68
-47 116 -118 116 -29 0 -45 -8 -71 -34z"/>
<path d="M1324 5781 c-68 -29 -86 -126 -35 -183 26 -29 36 -33 79 -33 57 0 86
20 109 73 17 41 5 87 -31 121 -26 25 -89 36 -122 22z"/>
<path d="M10143 5775 c-82 -36 -90 -160 -11 -201 56 -29 134 -8 157 43 16 35
13 95 -5 122 -16 23 -71 51 -96 51 -7 -1 -27 -7 -45 -15z"/>
<path d="M2308 5764 c-76 -41 -74 -159 2 -199 59 -30 127 -8 155 51 19 41 19
58 -1 100 -28 59 -98 80 -156 48z"/>
<path d="M4223 5731 c-40 -25 -53 -49 -53 -100 0 -117 164 -152 215 -45 47
100 -68 204 -162 145z"/>
<path d="M8644 5696 c-29 -29 -34 -41 -34 -79 0 -35 6 -51 28 -75 59 -63 147
-47 186 32 37 76 -17 156 -107 156 -31 0 -46 -7 -73 -34z"/>
<path d="M7615 5706 c-51 -22 -70 -52 -70 -108 0 -43 4 -53 33 -79 25 -23 42
-29 76 -29 132 0 157 172 33 219 -35 13 -35 13 -72 -3z"/>
<path d="M9360 5702 c-22 -10 -42 -32 -54 -55 -37 -77 17 -157 108 -157 53 0
106 52 106 104 0 52 -25 95 -65 112 -44 18 -53 18 -95 -4z"/>
<path d="M1580 5683 c-86 -77 -17 -220 95 -199 41 8 84 54 91 98 17 101 -110
169 -186 101z"/>
<path d="M11745 5679 c-63 -37 -88 -93 -65 -150 19 -45 56 -69 106 -69 62 0
104 39 111 102 5 42 2 49 -28 81 -37 40 -90 55 -124 36z"/>
<path d="M8143 5669 c-47 -14 -73 -52 -73 -108 1 -72 42 -111 119 -111 31 0
46 7 70 31 26 26 31 38 31 81 0 41 -5 54 -29 79 -16 16 -36 29 -44 29 -9 0
-21 2 -29 4 -7 2 -27 0 -45 -5z"/>
<path d="M2064 5636 c-29 -29 -34 -41 -34 -79 0 -75 66 -128 140 -112 35 8 76
53 85 94 8 40 -19 98 -56 116 -49 26 -97 19 -135 -19z"/>
<path d="M8940 5647 c-29 -15 -70 -72 -70 -99 0 -34 29 -83 59 -101 48 -28 98
-22 137 17 28 28 34 41 34 78 0 50 -18 82 -60 103 -35 18 -67 19 -100 2z"/>
<path d="M9624 5634 c-81 -40 -84 -158 -4 -199 102 -53 208 52 155 154 -14 29
-69 61 -102 61 -10 0 -32 -7 -49 -16z"/>
<path d="M9894 5636 c-42 -19 -64 -52 -64 -99 0 -73 42 -117 111 -117 66 0
108 43 109 110 0 54 -20 87 -66 106 -41 17 -50 17 -90 0z"/>
<path d="M1070 5602 c-73 -74 -28 -192 74 -195 69 -2 116 46 116 119 0 28 -8
44 -34 70 -29 29 -41 34 -81 34 -38 0 -52 -5 -75 -28z"/>
<path d="M6725 5621 c-33 -14 -56 -47 -62 -89 -15 -110 114 -173 191 -93 87
91 -12 230 -129 182z"/>
<path d="M7039 5607 c-21 -14 -39 -38 -48 -63 -12 -36 -12 -44 4 -77 21 -44
59 -67 111 -67 28 0 44 8 70 34 28 28 34 41 34 78 0 52 -21 85 -66 104 -46 19
-66 18 -105 -9z"/>
<path d="M3183 5585 c-82 -36 -90 -160 -11 -201 59 -31 136 -8 158 46 28 67 5
130 -55 156 -42 17 -51 17 -92 -1z"/>
<path d="M7340 5572 c-22 -10 -42 -32 -54 -55 -37 -77 17 -157 108 -157 56 0
106 52 106 109 0 51 -24 89 -67 107 -42 18 -51 18 -93 -4z"/>
<path d="M10647 5560 c-39 -33 -52 -76 -36 -118 25 -65 90 -97 150 -72 45 19
69 56 69 107 0 38 -5 50 -34 79 -46 46 -100 48 -149 4z"/>
<path d="M7831 5554 c-99 -83 -9 -243 110 -194 45 19 69 56 69 107 0 38 -5 50
-34 79 -44 44 -99 47 -145 8z"/>
<path d="M8399 5565 c-27 -15 -59 -69 -59 -100 0 -32 33 -86 61 -100 56 -30
126 -9 154 45 53 102 -55 210 -156 155z"/>
<path d="M6170 5549 c-64 -26 -94 -91 -70 -150 19 -45 56 -69 106 -69 l44 0 0
-37 c0 -55 31 -99 79 -114 34 -10 44 -9 78 7 116 57 76 221 -53 212 l-41 -3 5
41 c4 37 0 46 -29 77 -37 39 -80 52 -119 36z"/>
<path d="M10344 5532 c-31 -24 -44 -55 -44 -101 0 -31 7 -46 31 -70 25 -26 38
-31 78 -31 56 0 88 20 107 67 19 44 4 104 -33 132 -33 27 -109 28 -139 3z"/>
<path d="M1834 5506 c-26 -26 -34 -42 -34 -71 0 -53 27 -92 76 -111 37 -14 45
-14 77 0 39 16 77 67 77 104 0 31 -25 77 -52 96 -12 9 -42 16 -66 16 -37 0
-50 -6 -78 -34z"/>
<path d="M9168 5524 c-51 -27 -73 -101 -44 -152 17 -32 65 -62 99 -62 40 0 84
26 102 60 53 103 -55 210 -157 154z"/>
<path d="M1390 5476 c-40 -13 -80 -66 -80 -106 0 -40 40 -93 80 -106 45 -15
88 -2 123 36 74 82 -15 211 -123 176z"/>
<path d="M8690 5467 c-39 -13 -80 -67 -80 -104 0 -32 25 -78 52 -97 12 -9 42
-16 66 -16 37 0 50 6 78 34 26 26 34 42 34 71 0 85 -72 138 -150 112z"/>
<path d="M10074 5461 c-37 -22 -59 -78 -49 -119 3 -15 18 -39 32 -54 73 -76
193 -22 193 88 0 28 -8 44 -34 70 -40 40 -92 46 -142 15z"/>
<path d="M2309 5446 c-36 -21 -63 -79 -55 -120 9 -45 55 -87 102 -92 102 -13
165 110 96 187 -33 37 -100 49 -143 25z"/>
<path d="M1670 5433 c-59 -18 -90 -56 -90 -112 0 -66 46 -111 115 -111 80 0
132 79 102 152 -21 50 -83 85 -127 71z"/>
<path d="M9424 5406 c-29 -29 -34 -41 -34 -79 0 -147 219 -150 223 -3 2 69
-46 116 -119 116 -28 0 -44 -8 -70 -34z"/>
<path d="M8117 5409 c-82 -64 -37 -199 67 -202 89 -2 142 85 104 168 -25 54
-121 74 -171 34z"/>
<path d="M7548 5391 c-29 -26 -33 -36 -33 -79 0 -57 20 -86 73 -109 44 -18 91
-3 128 40 22 26 25 38 21 76 -11 95 -118 136 -189 72z"/>
<path d="M9724 5356 c-39 -39 -45 -86 -18 -137 19 -37 74 -63 115 -54 141 31
118 225 -27 225 -28 0 -44 -8 -70 -34z"/>
<path d="M8956 5370 c-39 -12 -64 -37 -75 -75 -20 -73 29 -145 99 -145 79 0
120 41 120 118 0 30 -7 48 -29 71 -16 17 -36 31 -44 31 -9 0 -21 2 -29 4 -7 2
-26 0 -42 -4z"/>
<path d="M6956 5339 c-44 -38 -54 -83 -32 -131 29 -61 96 -84 156 -53 41 21
60 53 60 100 0 100 -110 150 -184 84z"/>
<path d="M1120 5342 c-110 -55 -73 -212 50 -212 57 0 110 50 110 104 0 52 -25
95 -65 112 -44 18 -53 18 -95 -4z"/>
<path d="M2074 5350 c-34 -13 -64 -59 -64 -97 0 -107 115 -160 191 -87 92 88
-8 232 -127 184z"/>
<path d="M7249 5337 c-64 -43 -69 -126 -9 -179 59 -54 153 -25 180 56 15 46
-7 98 -52 126 -43 26 -77 25 -119 -3z"/>
<path d="M10823 5346 c-65 -29 -84 -123 -35 -176 54 -62 158 -47 189 27 40 97
-58 192 -154 149z"/>
<path d="M3164 5321 c-85 -52 -55 -184 46 -206 39 -8 97 20 115 56 26 49 19
97 -19 135 -40 40 -92 46 -142 15z"/>
<path d="M3433 5321 c-40 -25 -53 -49 -53 -101 0 -34 6 -48 34 -76 27 -27 42
-34 74 -34 49 0 95 35 112 84 31 94 -82 180 -167 127z"/>
<path d="M7870 5313 c-50 -34 -67 -82 -49 -131 25 -65 90 -97 150 -72 45 19
69 56 69 107 0 38 -5 50 -34 79 -27 27 -42 34 -73 34 -21 0 -50 -8 -63 -17z"/>
<path d="M11083 5318 c-78 -21 -109 -119 -55 -178 54 -60 136 -55 180 10 58
86 -23 195 -125 168z"/>
<path d="M8402 5307 c-34 -20 -53 -53 -54 -97 -1 -51 24 -87 70 -107 98 -41
186 61 140 162 -22 49 -104 71 -156 42z"/>
<path d="M10538 5304 c-76 -41 -74 -159 2 -199 57 -30 127 -10 155 45 53 103
-55 210 -157 154z"/>
<path d="M9215 5260 c-33 -13 -65 -55 -71 -92 -12 -74 51 -135 129 -125 109
15 132 164 33 211 -37 17 -60 19 -91 6z"/>
<path d="M2544 5226 c-29 -29 -34 -41 -34 -81 0 -38 5 -52 28 -75 74 -73 196
-26 196 76 0 68 -48 114 -120 114 -28 0 -44 -8 -70 -34z"/>
<path d="M6754 5250 c-60 -24 -85 -121 -44 -172 42 -54 125 -61 169 -14 86 92
-8 233 -125 186z"/>
<path d="M10262 5247 c-53 -30 -71 -111 -37 -163 58 -90 205 -49 205 57 0 21
-5 49 -11 62 -22 49 -105 73 -157 44z"/>
<path d="M8706 5209 c-66 -19 -101 -89 -76 -150 19 -45 56 -69 107 -69 38 0
50 5 79 34 47 47 48 102 2 150 -37 38 -69 48 -112 35z"/>
<path d="M9983 5210 c-29 -12 -63 -67 -63 -103 0 -57 60 -117 115 -117 31 0
81 30 98 59 57 96 -44 204 -150 161z"/>
<path d="M1819 5195 c-36 -19 -63 -78 -55 -120 13 -68 93 -111 157 -84 60 24
89 116 53 167 -33 48 -104 65 -155 37z"/>
<path d="M1524 5156 c-29 -29 -34 -41 -34 -79 0 -83 76 -136 152 -104 120 50
83 217 -48 217 -28 0 -44 -8 -70 -34z"/>
<path d="M9468 5172 c-30 -18 -58 -67 -58 -100 0 -28 41 -85 74 -100 38 -19
93 -7 128 28 23 23 28 37 28 75 0 40 -5 52 -34 81 -27 27 -42 34 -72 34 -22 0
-51 -8 -66 -18z"/>
<path d="M8134 5161 c-35 -21 -60 -78 -50 -115 10 -39 45 -75 85 -87 73 -22
141 34 141 117 0 28 -8 44 -34 70 -40 40 -92 46 -142 15z"/>
<path d="M1278 5154 c-15 -8 -35 -28 -43 -44 -60 -116 86 -226 179 -134 92 93
-21 241 -136 178z"/>
<path d="M7663 5150 c-40 -24 -53 -48 -53 -100 0 -34 6 -48 34 -76 28 -28 42
-34 76 -34 34 0 48 6 76 34 28 28 34 41 34 78 0 50 -18 82 -60 103 -39 20 -69
19 -107 -5z"/>
<path d="M2324 5144 c-35 -17 -64 -61 -64 -99 0 -87 104 -145 176 -99 75 50
68 161 -12 199 -40 19 -61 19 -100 -1z"/>
<path d="M7423 5121 c-40 -25 -53 -49 -53 -101 0 -34 6 -48 34 -76 48 -48 101
-48 153 -1 32 30 36 40 36 81 0 39 -5 52 -30 77 -39 40 -95 48 -140 20z"/>
<path d="M3020 5113 c-54 -37 -71 -88 -47 -146 36 -84 160 -88 202 -7 53 102
-63 216 -155 153z"/>
<path d="M9744 5110 c-88 -35 -84 -173 5 -210 85 -35 179 50 151 136 -22 67
-92 100 -156 74z"/>
<path d="M7124 5076 c-26 -26 -34 -42 -34 -70 0 -73 47 -121 116 -119 75 2
126 73 105 144 -16 52 -53 79 -108 79 -38 0 -50 -5 -79 -34z"/>
<path d="M3305 5087 c-59 -27 -83 -86 -59 -146 38 -95 171 -94 209 1 37 92
-60 185 -150 145z"/>
<path d="M8949 5085 c-27 -15 -59 -69 -59 -100 0 -31 30 -81 59 -98 55 -32
127 -13 156 43 53 102 -55 210 -156 155z"/>
<path d="M5740 5073 c-55 -38 -72 -91 -46 -145 53 -112 216 -74 216 49 0 45
-20 77 -60 98 -38 20 -80 19 -110 -2z"/>
<path d="M8440 5063 c-109 -55 -74 -213 47 -213 38 0 50 5 79 34 37 37 45 82
22 130 -24 53 -93 76 -148 49z"/>
<path d="M10734 5064 c-81 -40 -84 -158 -4 -199 103 -53 208 53 154 156 -15
30 -66 59 -101 59 -10 0 -32 -7 -49 -16z"/>
<path d="M2048 5049 c-16 -12 -32 -37 -38 -60 -15 -54 10 -107 62 -132 101
-49 200 64 141 163 -31 53 -114 67 -165 29z"/>
<path d="M11054 5056 c-80 -36 -98 -132 -35 -188 68 -61 176 -22 187 67 10 87
-75 155 -152 121z"/>
<path d="M7874 5026 c-39 -39 -45 -86 -19 -136 16 -30 61 -60 90 -60 12 0 9
-8 -13 -30 -48 -48 -48 -112 -1 -160 58 -58 167 -32 188 45 20 74 -27 145 -96
145 l-34 0 35 31 c85 74 37 199 -77 199 -31 0 -46 -7 -73 -34z"/>
<path d="M3572 5034 c-74 -51 -65 -161 16 -200 48 -22 93 -12 131 32 35 39 40
78 16 124 -28 55 -115 78 -163 44z"/>
<path d="M6889 5025 c-35 -19 -62 -77 -54 -115 30 -138 225 -121 225 20 0 34
-6 48 -34 76 -27 27 -42 34 -72 34 -22 -1 -51 -7 -65 -15z"/>
<path d="M10443 5021 c-40 -25 -53 -49 -53 -101 0 -34 6 -48 34 -76 28 -28 42
-34 76 -34 34 0 48 6 76 34 29 29 34 41 34 80 0 90 -92 144 -167 97z"/>
<path d="M2626 5009 c-88 -24 -111 -142 -39 -199 33 -26 109 -27 139 -2 98 79
22 234 -100 201z"/>
<path d="M9218 4984 c-32 -17 -58 -62 -58 -99 0 -57 61 -115 120 -115 34 0 78
28 95 60 53 103 -55 210 -157 154z"/>
<path d="M10119 4985 c-27 -14 -59 -69 -59 -100 0 -47 51 -103 102 -111 69
-12 128 44 128 122 0 52 -53 104 -106 104 -22 -1 -51 -7 -65 -15z"/>
<path d="M6614 4971 c-37 -22 -59 -78 -49 -119 3 -15 18 -39 32 -54 73 -76
193 -22 193 88 0 28 -8 44 -34 70 -40 40 -92 46 -142 15z"/>
<path d="M6363 4945 c-38 -16 -63 -60 -63 -111 0 -51 53 -104 104 -104 21 0
50 7 65 15 29 14 61 68 61 102 0 29 -36 81 -69 98 -36 18 -56 18 -98 0z"/>
<path d="M8684 4916 c-28 -28 -34 -42 -34 -76 0 -53 29 -95 76 -110 63 -21
125 13 145 79 22 73 -34 141 -117 141 -28 0 -44 -8 -70 -34z"/>
<path d="M8230 4934 c-63 -22 -90 -57 -90 -120 0 -28 8 -44 34 -70 29 -29 41
-34 79 -34 111 0 156 145 64 204 -27 18 -67 27 -87 20z"/>
<path d="M1454 4896 c-28 -28 -34 -41 -34 -78 0 -50 18 -82 60 -103 39 -20 69
-19 108 5 70 43 75 131 11 185 -46 38 -101 35 -145 -9z"/>
<path d="M9508 4910 c-79 -62 -49 -183 51 -205 65 -14 131 46 131 120 0 29 -8
45 -34 71 -29 29 -41 34 -79 34 -29 0 -53 -7 -69 -20z"/>
<path d="M1144 4886 c-26 -26 -34 -42 -34 -70 0 -52 23 -90 66 -111 46 -22 92
-14 128 24 73 77 20 191 -90 191 -28 0 -44 -8 -70 -34z"/>
<path d="M1765 4906 c-42 -18 -65 -57 -65 -107 0 -56 50 -109 104 -109 52 0
90 23 111 67 16 33 16 41 4 77 -24 67 -94 100 -154 72z"/>
<path d="M6095 4911 c-29 -12 -54 -44 -65 -81 -19 -67 39 -140 112 -140 32 0
47 7 74 34 28 28 34 41 34 78 0 50 -18 82 -60 103 -32 16 -64 18 -95 6z"/>
<path d="M2869 4887 c-21 -14 -39 -38 -48 -63 -12 -35 -12 -44 3 -75 20 -43
62 -69 111 -69 29 0 45 8 71 34 28 28 34 41 34 78 0 50 -18 82 -60 103 -40 21
-71 19 -111 -8z"/>
<path d="M7352 4873 c-80 -39 -81 -157 -2 -198 103 -53 211 57 153 156 -18 30
-67 59 -100 59 -10 0 -33 -8 -51 -17z"/>
<path d="M7654 4876 c-43 -19 -64 -53 -64 -104 0 -37 6 -50 34 -78 38 -38 85
-45 134 -20 80 41 71 166 -13 202 -42 17 -51 17 -91 0z"/>
<path d="M9824 4861 c-37 -22 -59 -78 -49 -119 3 -15 18 -39 32 -54 76 -80
205 -15 190 96 -11 83 -100 122 -173 77z"/>
<path d="M2344 4846 c-44 -19 -64 -53 -64 -104 0 -37 6 -50 34 -78 27 -27 42
-34 73 -34 84 0 141 79 109 153 -27 65 -91 91 -152 63z"/>
<path d="M10924 4841 c-68 -29 -86 -126 -35 -183 26 -29 36 -33 79 -33 57 0
86 20 109 73 17 41 5 87 -31 121 -26 25 -89 36 -122 22z"/>
<path d="M7078 4824 c-54 -29 -73 -101 -41 -155 17 -29 67 -59 98 -59 31 0 81
30 98 59 59 100 -53 211 -155 155z"/>
<path d="M2055 4816 c-51 -22 -70 -52 -70 -108 0 -43 4 -53 33 -79 71 -64 178
-23 189 71 6 53 -20 94 -73 116 -40 17 -41 17 -79 0z"/>
<path d="M8440 4793 c-38 -35 -51 -78 -36 -123 13 -40 66 -80 106 -80 41 0 93
40 107 83 35 106 -95 193 -177 120z"/>
<path d="M8996 4810 c-122 -37 -101 -220 25 -220 74 0 119 41 119 110 0 77
-70 131 -144 110z"/>
<path d="M3158 4794 c-76 -41 -74 -159 2 -199 57 -30 127 -10 155 45 53 103
-55 210 -157 154z"/>
<path d="M10304 4766 c-29 -29 -34 -41 -34 -79 0 -55 27 -92 79 -108 74 -22
144 32 143 110 -1 70 -45 111 -118 111 -28 0 -44 -8 -70 -34z"/>
<path d="M10624 4761 c-37 -22 -59 -78 -49 -119 3 -15 18 -39 32 -54 73 -76
193 -22 193 88 0 28 -8 44 -34 70 -40 40 -92 46 -142 15z"/>
<path d="M9320 4753 c-30 -11 -70 -57 -76 -88 -3 -19 1 -46 9 -68 47 -111 217
-73 217 49 0 73 -82 132 -150 107z"/>
<path d="M2632 4730 c-70 -43 -75 -131 -11 -185 46 -38 101 -35 145 9 28 28
34 41 34 78 0 50 -18 82 -60 103 -39 20 -69 19 -108 -5z"/>
<path d="M6784 4706 c-26 -26 -34 -42 -34 -70 0 -52 23 -90 66 -111 31 -14 43
-15 75 -6 66 20 100 82 79 146 -15 45 -61 75 -113 75 -31 0 -46 -7 -73 -34z"/>
<path d="M10044 4696 c-38 -38 -45 -86 -19 -135 18 -37 76 -64 116 -56 41 9
86 50 94 85 16 74 -37 140 -112 140 -38 0 -50 -5 -79 -34z"/>
<path d="M1360 4713 c-30 -11 -70 -57 -76 -89 -8 -42 20 -100 57 -119 49 -26
97 -19 135 19 28 28 34 41 34 78 0 24 -7 54 -16 66 -28 41 -89 61 -134 45z"/>
<path d="M6523 4685 c-36 -15 -73 -68 -73 -103 0 -31 25 -77 52 -96 12 -9 42
-16 66 -16 59 0 112 49 112 104 0 90 -78 146 -157 111z"/>
<path d="M6208 4663 c-51 -32 -65 -118 -27 -166 64 -82 199 -37 202 67 3 92
-96 148 -175 99z"/>
<path d="M8684 4646 c-44 -44 -47 -99 -9 -145 54 -64 142 -59 185 11 24 39 25
69 5 108 -21 42 -53 60 -103 60 -37 0 -50 -6 -78 -34z"/>
<path d="M9605 4667 c-82 -37 -93 -138 -20 -195 83 -66 205 25 171 127 -20 62
-93 94 -151 68z"/>
<path d="M5882 4642 c-38 -35 -48 -79 -28 -125 36 -87 160 -96 202 -15 25 49
18 96 -20 134 -29 29 -41 34 -79 34 -35 0 -51 -6 -75 -28z"/>
<path d="M8208 4644 c-76 -41 -74 -159 2 -199 57 -30 127 -10 155 45 53 103
-55 210 -157 154z"/>
<path d="M1074 4631 c-37 -22 -59 -78 -49 -119 3 -15 18 -39 32 -54 73 -76
193 -22 193 88 0 28 -8 44 -34 70 -40 40 -92 46 -142 15z"/>
<path d="M7444 4616 c-26 -26 -34 -42 -34 -70 0 -110 120 -164 193 -88 73 77
21 192 -86 192 -31 0 -46 -7 -73 -34z"/>
<path d="M2928 4624 c-76 -41 -74 -159 2 -199 57 -30 127 -10 155 45 53 103
-55 210 -157 154z"/>
<path d="M1579 4592 c-45 -40 -52 -106 -15 -149 34 -41 83 -58 122 -43 67 26
99 90 74 151 -30 73 -122 94 -181 41z"/>
<path d="M1884 4606 c-44 -19 -64 -53 -64 -104 0 -37 6 -50 34 -78 38 -38 85
-45 134 -20 48 25 70 88 48 139 -25 61 -94 89 -152 63z"/>
<path d="M7975 4590 c-33 -13 -65 -55 -71 -92 -12 -73 51 -135 128 -125 l38 5
-25 -30 c-32 -38 -34 -103 -5 -141 82 -104 251 -1 194 118 -21 44 -64 68 -115
63 l-38 -3 20 21 c28 30 35 93 16 131 -25 48 -93 74 -142 53z"/>
<path d="M2190 4572 c-20 -9 -44 -33 -54 -53 -40 -75 17 -159 108 -159 53 0
106 52 106 104 0 51 -23 90 -64 110 -43 20 -53 20 -96 -2z"/>
<path d="M8464 4565 c-58 -30 -79 -97 -49 -155 21 -41 53 -60 100 -60 47 0 79
19 100 60 24 47 19 86 -17 125 -39 42 -88 53 -134 30z"/>
<path d="M9118 4565 c-74 -41 -77 -152 -6 -195 62 -37 133 -17 164 48 45 95
-67 198 -158 147z"/>
<path d="M9834 4546 c-27 -27 -34 -42 -34 -72 0 -91 80 -145 157 -108 114 56
78 214 -50 214 -31 0 -46 -7 -73 -34z"/>
<path d="M10435 4570 c-60 -24 -90 -103 -61 -158 50 -98 198 -74 213 34 11 88
-73 157 -152 124z"/>
<path d="M2432 4521 c-59 -60 -44 -148 31 -185 33 -16 45 -17 77 -7 92 27 110
157 30 204 -46 27 -103 22 -138 -12z"/>
<path d="M10843 4535 c-82 -36 -90 -160 -11 -201 59 -31 136 -8 158 46 28 67
5 130 -55 156 -42 17 -51 17 -92 -1z"/>
<path d="M8882 4487 c-34 -20 -53 -53 -54 -97 -1 -79 69 -133 143 -111 52 16
79 53 79 108 0 38 -5 50 -34 79 -27 27 -42 34 -72 34 -22 -1 -49 -6 -62 -13z"/>
<path d="M9404 4483 c-12 -2 -34 -18 -50 -34 -24 -25 -29 -39 -29 -80 0 -44 4
-54 33 -80 72 -64 178 -23 189 73 5 42 2 49 -28 81 -34 35 -73 49 -115 40z"/>
<path d="M2732 4460 c-70 -43 -75 -131 -11 -185 46 -38 101 -35 145 9 28 28
34 41 34 78 0 50 -18 82 -60 103 -39 20 -69 19 -108 -5z"/>
<path d="M6680 4453 c-62 -55 -47 -153 28 -189 89 -42 190 55 152 147 -30 72
-122 94 -180 42z"/>
<path d="M10144 4446 c-27 -27 -34 -42 -34 -72 0 -91 80 -145 157 -108 114 56
78 214 -50 214 -31 0 -46 -7 -73 -34z"/>
<path d="M1332 4447 c-35 -20 -55 -56 -55 -99 0 -50 28 -89 76 -105 118 -40
203 99 115 187 -23 24 -38 30 -71 30 -23 -1 -52 -6 -65 -13z"/>
<path d="M11401 4426 c-81 -45 -63 -180 27 -207 97 -29 180 76 132 166 -27 50
-106 70 -159 41z"/>
<path d="M9644 4371 c-61 -37 -69 -119 -17 -173 76 -79 205 -14 190 96 -11 82
-100 122 -173 77z"/>
<path d="M1074 4361 c-119 -72 -16 -256 110 -196 64 31 84 101 46 163 -33 53
-99 68 -156 33z"/>
<path d="M5624 4346 c-28 -28 -34 -42 -34 -75 0 -76 80 -136 148 -110 65 25
97 90 72 150 -19 45 -56 69 -107 69 -38 0 -50 -5 -79 -34z"/>
<path d="M7589 4357 c-45 -30 -64 -85 -45 -131 32 -77 119 -101 176 -48 60 53
55 136 -9 179 -43 29 -79 29 -122 0z"/>
<path d="M8608 4363 c-15 -10 -34 -34 -42 -54 -36 -90 47 -179 139 -149 49 16
75 53 75 107 0 38 -5 50 -34 79 -27 27 -42 34 -72 34 -22 0 -51 -8 -66 -17z"/>
<path d="M8344 4356 c-45 -20 -74 -62 -74 -108 0 -32 7 -47 34 -74 29 -29 41
-34 79 -34 132 0 159 172 34 219 -35 13 -35 13 -73 -3z"/>
<path d="M1775 4346 c-51 -22 -70 -52 -70 -108 0 -43 4 -53 33 -79 71 -64 178
-23 189 71 6 53 -20 94 -73 116 -40 17 -41 17 -79 0z"/>
<path d="M2045 4338 c-63 -34 -88 -92 -65 -148 44 -106 202 -87 217 26 11 87
-81 162 -152 122z"/>
<path d="M7039 4292 c-24 -21 -32 -39 -36 -73 -5 -41 -2 -50 26 -82 18 -19 44
-38 60 -42 56 -12 126 34 137 92 20 106 -106 177 -187 105z"/>
<path d="M9930 4303 c-109 -55 -74 -213 47 -213 38 0 50 5 79 34 37 37 45 82
22 130 -24 53 -93 76 -148 49z"/>
<path d="M2323 4290 c-40 -24 -53 -48 -53 -98 0 -101 123 -147 195 -72 23 24
28 39 28 76 0 41 -4 51 -36 81 -43 39 -85 43 -134 13z"/>
<path d="M9165 4298 c-63 -35 -88 -92 -65 -149 19 -45 56 -69 106 -69 120 0
156 163 48 215 -38 18 -61 19 -89 3z"/>
<path d="M1515 4276 c-40 -17 -65 -56 -65 -101 0 -71 43 -115 111 -115 123 0
157 169 44 216 -42 17 -51 17 -90 0z"/>
<path d="M10445 4272 c-74 -34 -89 -120 -31 -178 29 -29 41 -34 81 -34 38 0
52 5 75 28 93 93 -7 238 -125 184z"/>
<path d="M7354 4266 c-43 -19 -64 -53 -64 -104 0 -37 6 -50 34 -78 28 -28 42
-34 76 -34 34 0 48 6 76 34 28 28 34 41 34 78 0 52 -21 85 -66 104 -41 17 -50
17 -90 0z"/>
<path d="M2604 4232 c-63 -50 -56 -159 11 -190 69 -32 143 -3 165 63 15 44 -1
96 -37 125 -33 26 -109 27 -139 2z"/>
<path d="M8847 4221 c-41 -36 -53 -74 -37 -117 26 -67 90 -99 151 -74 45 19
69 56 69 106 0 62 -39 104 -101 111 -41 5 -50 2 -82 -26z"/>
<path d="M9453 4205 c-59 -25 -85 -92 -58 -150 21 -42 59 -65 111 -65 54 0
104 53 104 109 0 51 -24 89 -67 107 -40 17 -49 17 -90 -1z"/>
<path d="M10154 4176 c-27 -27 -34 -42 -34 -72 0 -91 80 -145 156 -108 79 39
95 127 32 186 -24 22 -40 28 -75 28 -38 0 -50 -5 -79 -34z"/>
<path d="M1283 4163 c-13 -3 -36 -18 -53 -34 -25 -26 -30 -38 -30 -79 0 -41 5
-53 31 -79 59 -59 166 -33 188 45 24 86 -48 163 -136 147z"/>
<path d="M8094 4106 c-101 -101 37 -254 150 -165 58 46 54 142 -8 180 -50 31
-102 25 -142 -15z"/>
<path d="M8604 4086 c-27 -27 -34 -42 -34 -74 0 -105 136 -156 200 -75 41 53
38 106 -10 154 -23 24 -37 29 -75 29 -40 0 -52 -5 -81 -34z"/>
<path d="M8367 4089 c-37 -28 -52 -88 -33 -132 19 -47 51 -67 106 -67 87 1
136 82 98 165 -25 54 -121 74 -171 34z"/>
<path d="M9720 4093 c-55 -38 -72 -91 -46 -145 40 -85 159 -89 201 -8 53 102
-63 216 -155 153z"/>
<path d="M1673 4075 c-36 -15 -73 -68 -73 -103 0 -31 25 -77 52 -96 12 -9 42
-16 66 -16 91 0 145 105 90 175 -19 24 -74 56 -95 55 -4 -1 -23 -7 -40 -15z"/>
<path d="M7563 4074 c-31 -15 -63 -65 -63 -98 0 -35 30 -85 59 -100 77 -41
171 10 171 92 0 45 -24 89 -60 107 -37 19 -67 19 -107 -1z"/>
<path d="M7824 4080 c-55 -22 -85 -99 -60 -152 52 -110 216 -75 216 45 0 49
-19 81 -60 102 -32 17 -64 18 -96 5z"/>
<path d="M2172 4063 c-80 -39 -81 -157 -2 -198 103 -53 211 57 153 156 -18 30
-67 59 -100 59 -10 0 -33 -8 -51 -17z"/>
<path d="M1918 4044 c-76 -41 -74 -159 2 -199 57 -30 127 -10 155 45 53 103
-55 210 -157 154z"/>
<path d="M9035 4051 c-77 -33 -90 -140 -24 -195 46 -39 101 -36 145 8 29 29
34 41 34 80 0 61 -37 105 -95 111 -22 3 -49 1 -60 -4z"/>
<path d="M5834 4016 c-26 -26 -34 -42 -34 -71 0 -42 14 -73 42 -96 20 -16 20
-16 -6 -44 -48 -52 -43 -119 14 -170 16 -15 35 -20 71 -19 l49 0 0 -39 c0 -55
51 -107 107 -107 21 0 49 7 61 16 21 15 22 14 22 -16 0 -106 128 -158 194 -79
34 40 41 70 26 114 -21 64 -114 97 -168 59 -22 -15 -22 -14 -22 25 0 31 -7 49
-29 73 -26 29 -35 33 -80 33 l-51 0 0 37 c0 27 -8 47 -30 71 -27 31 -28 36
-14 48 8 7 22 26 31 43 11 21 18 26 20 16 17 -60 56 -90 119 -90 28 0 44 8 70
34 29 29 34 41 34 79 0 56 -27 92 -80 108 -32 10 -44 9 -77 -7 -22 -11 -45
-32 -54 -52 l-17 -32 -12 30 c-18 43 -60 70 -110 70 -34 0 -48 -6 -76 -34z"/>
<path d="M10568 4032 c-37 -22 -61 -75 -53 -113 31 -138 225 -123 225 18 0 38
-5 50 -34 79 -27 27 -42 34 -72 34 -22 0 -51 -8 -66 -18z"/>
<path d="M2449 4015 c-36 -19 -63 -78 -55 -119 4 -18 19 -45 35 -60 77 -73
191 -20 191 90 0 52 -53 104 -106 104 -22 -1 -51 -7 -65 -15z"/>
<path d="M9263 4010 c-40 -24 -53 -48 -53 -100 0 -34 6 -48 34 -76 28 -28 42
-34 76 -34 34 0 48 6 76 34 28 28 34 41 34 78 0 50 -18 82 -60 103 -39 20 -69
19 -107 -5z"/>
<path d="M9983 4016 c-38 -17 -63 -61 -63 -112 0 -51 53 -104 104 -104 53 0
95 25 113 67 40 97 -58 192 -154 149z"/>
<path d="M7332 3950 c-45 -28 -67 -80 -52 -126 15 -46 63 -84 105 -84 l34 0
-21 -35 c-24 -41 -20 -95 9 -128 26 -29 80 -49 114 -42 31 7 89 67 89 92 0 13
6 12 28 -9 34 -32 72 -41 109 -27 66 25 98 90 73 150 -19 45 -56 69 -107 69
-38 0 -50 -5 -79 -34 -19 -19 -34 -42 -34 -51 0 -14 -5 -12 -31 9 -22 19 -42
26 -70 26 l-40 0 20 26 c25 32 28 100 5 132 -19 27 -65 52 -96 52 -13 0 -38
-9 -56 -20z"/>
<path d="M10274 3936 c-27 -27 -34 -42 -34 -72 0 -91 80 -145 157 -108 23 12
46 33 57 55 40 75 -17 159 -107 159 -31 0 -46 -7 -73 -34z"/>
<path d="M8816 3940 c-39 -12 -64 -37 -75 -75 -12 -46 -3 -81 31 -115 23 -23
39 -30 69 -30 77 0 118 39 119 111 0 38 -6 53 -29 78 -16 17 -36 31 -44 31 -9
0 -21 2 -29 4 -7 2 -26 0 -42 -4z"/>
<path d="M5624 3926 c-45 -20 -74 -62 -74 -108 0 -32 7 -47 34 -74 28 -28 41
-34 78 -34 24 0 54 7 66 16 27 19 52 65 52 96 0 36 -37 88 -75 104 -41 17 -42
17 -81 0z"/>
<path d="M9533 3921 c-40 -25 -53 -49 -53 -101 0 -34 6 -48 34 -76 27 -27 42
-34 74 -34 49 0 95 35 112 84 31 94 -82 180 -167 127z"/>
<path d="M1454 3920 c-60 -24 -85 -121 -44 -172 41 -53 125 -61 168 -15 51 54
49 120 -5 167 -35 31 -76 38 -119 20z"/>
<path d="M8013 3900 c-40 -24 -53 -48 -53 -97 0 -121 164 -155 216 -45 22 48
12 93 -32 131 -41 37 -84 40 -131 11z"/>
<path d="M6283 3855 c-36 -15 -73 -68 -73 -103 0 -61 54 -112 121 -112 56 0
109 50 109 104 0 51 -23 90 -64 110 -41 19 -51 19 -93 1z"/>
<path d="M8273 3845 c-83 -36 -88 -167 -7 -203 48 -23 93 -15 130 22 28 28 34
41 34 78 0 52 -21 85 -66 104 -41 17 -50 17 -91 -1z"/>
<path d="M8523 3845 c-82 -35 -90 -153 -13 -198 57 -34 137 -11 161 46 27 64
4 128 -56 153 -42 17 -51 17 -92 -1z"/>
<path d="M6760 3833 c-109 -55 -74 -213 47 -213 38 0 50 5 79 34 37 37 45 82
22 130 -24 53 -93 76 -148 49z"/>
<path d="M1752 3814 c-53 -27 -79 -103 -52 -154 9 -17 7 -18 -23 -13 -39 6
-88 -15 -111 -49 -9 -12 -16 -42 -16 -66 0 -37 6 -50 35 -79 33 -33 39 -35 82
-30 63 7 103 49 103 108 0 22 -4 49 -10 59 -9 16 -6 18 29 13 110 -15 172 114
92 191 -35 34 -86 42 -129 20z"/>
<path d="M7080 3813 c-58 -21 -93 -98 -70 -153 44 -106 202 -87 217 26 11 84
-71 155 -147 127z"/>
<path d="M9045 3786 c-42 -18 -65 -57 -65 -107 0 -56 50 -109 104 -109 52 0
90 23 111 67 16 33 16 41 4 77 -24 67 -94 100 -154 72z"/>
<path d="M10563 3780 c-39 -24 -53 -48 -53 -95 0 -120 163 -158 215 -49 19 41
19 58 -1 100 -29 62 -101 81 -161 44z"/>
<path d="M9803 3775 c-84 -36 -92 -159 -12 -200 49 -26 97 -19 135 19 28 28
34 41 34 78 0 52 -21 85 -66 104 -41 17 -50 17 -91 -1z"/>
<path d="M10054 3761 c-37 -22 -59 -78 -49 -119 9 -38 53 -81 91 -88 42 -8
100 20 119 57 26 49 19 97 -19 135 -40 40 -92 46 -142 15z"/>
<path d="M9284 3736 c-28 -28 -34 -42 -34 -76 0 -34 6 -48 34 -76 29 -29 41
-34 80 -34 36 0 52 6 78 29 29 26 33 35 33 81 0 46 -4 55 -33 81 -26 23 -42
29 -78 29 -39 0 -51 -5 -80 -34z"/>
<path d="M6474 3731 c-37 -22 -59 -78 -49 -119 3 -15 18 -39 32 -54 73 -76
193 -22 193 88 0 28 -8 44 -34 70 -40 40 -92 46 -142 15z"/>
<path d="M5455 3690 c-43 -17 -68 -57 -68 -106 0 -42 4 -51 37 -82 35 -31 42
-34 84 -29 114 13 143 160 42 212 -32 16 -64 18 -95 5z"/>
<path d="M8738 3685 c-53 -30 -75 -116 -42 -163 51 -74 161 -65 200 16 45 95
-67 198 -158 147z"/>
<path d="M10335 3678 c-65 -36 -87 -89 -62 -151 18 -42 60 -67 113 -67 51 0
104 53 104 104 0 51 -23 90 -64 110 -39 19 -63 20 -91 4z"/>
<path d="M9534 3636 c-28 -28 -34 -42 -34 -76 0 -141 195 -158 225 -20 8 39
-20 97 -56 115 -49 26 -97 19 -135 -19z"/>
<path d="M5704 3631 c-37 -22 -59 -78 -49 -119 3 -15 18 -39 32 -54 73 -76
193 -22 193 88 0 28 -8 44 -34 70 -40 40 -92 46 -142 15z"/>
<path d="M6922 3613 c-100 -49 -66 -213 44 -213 131 0 169 156 52 216 -35 18
-55 17 -96 -3z"/>
<path d="M6662 3554 c-101 -52 -66 -214 46 -214 48 0 95 29 111 69 40 95 -65
192 -157 145z"/>
<path d="M7809 3555 c-41 -22 -62 -76 -49 -123 35 -132 220 -110 220 25 0 38
-5 50 -34 79 -27 27 -42 34 -72 34 -22 -1 -51 -7 -65 -15z"/>
<path d="M8942 3547 c-34 -20 -53 -53 -54 -97 -1 -51 24 -89 72 -107 l38 -15
-19 -32 c-36 -59 -15 -136 46 -162 l33 -14 -34 -34 c-29 -29 -34 -41 -34 -81
0 -38 5 -52 29 -75 51 -52 111 -52 162 0 55 54 32 153 -43 184 l-28 12 23 13
c30 16 57 61 57 96 0 55 -54 115 -105 115 -14 0 -13 4 4 26 27 34 28 110 3
140 -35 44 -102 57 -150 31z"/>
<path d="M7610 3533 c-62 -19 -90 -56 -90 -119 0 -28 8 -44 34 -70 29 -29 41
-34 79 -34 139 0 154 194 17 223 -14 3 -32 3 -40 0z"/>
<path d="M9223 3530 c-64 -26 -79 -127 -27 -181 76 -80 206 -15 191 95 -10 76
-88 117 -164 86z"/>
<path d="M7180 3513 c-8 -3 -27 -17 -42 -31 -79 -73 -13 -203 96 -189 109 15
134 161 36 212 -29 15 -62 18 -90 8z"/>
<path d="M10053 3491 c-35 -22 -53 -49 -53 -81 0 -18 -5 -15 -38 20 -33 34
-45 40 -80 40 -32 0 -49 -7 -75 -30 -54 -47 -56 -113 -5 -167 61 -65 188 -17
188 70 l0 30 23 -34 c59 -87 174 -73 207 25 31 94 -82 180 -167 127z"/>
<path d="M5291 3476 c-52 -29 -69 -121 -30 -169 64 -82 199 -37 202 67 2 89
-93 146 -172 102z"/>
<path d="M8047 3472 c-15 -9 -34 -35 -43 -59 -15 -39 -15 -44 2 -80 55 -112
214 -80 214 44 0 38 -5 50 -34 79 -27 27 -42 34 -72 34 -22 0 -51 -8 -67 -18z"/>
<path d="M1773 3426 c-38 -17 -63 -61 -63 -112 0 -51 53 -104 104 -104 53 0
95 25 113 67 40 97 -58 192 -154 149z"/>
<path d="M5590 3434 c-63 -22 -90 -57 -90 -120 0 -52 53 -104 107 -104 87 0
142 76 110 152 -22 51 -84 86 -127 72z"/>
<path d="M5884 3430 c-60 -24 -85 -121 -44 -172 41 -53 125 -61 168 -15 51 54
49 120 -5 167 -35 31 -76 38 -119 20z"/>
<path d="M6409 3425 c-27 -15 -59 -69 -59 -102 0 -31 38 -82 75 -100 74 -35
155 23 155 111 0 54 -52 106 -106 106 -22 -1 -51 -7 -65 -15z"/>
<path d="M6854 3375 c-39 -20 -64 -63 -64 -110 0 -51 53 -105 103 -105 53 0
85 16 108 52 58 94 -48 213 -147 163z"/>
<path d="M6155 3310 c-33 -13 -65 -55 -71 -92 -12 -69 44 -128 122 -128 51 0
104 53 104 104 0 88 -80 148 -155 116z"/>
<path d="M7764 3310 c-60 -24 -85 -121 -44 -172 41 -53 125 -61 168 -15 51 54
49 120 -5 167 -35 31 -76 38 -119 20z"/>
<path d="M6618 3269 c-33 -12 -68 -66 -68 -103 0 -61 55 -116 115 -116 119 0
158 171 50 216 -39 16 -59 17 -97 3z"/>
<path d="M7063 3266 c-70 -32 -83 -135 -23 -188 55 -50 151 -28 179 41 39 94
-62 189 -156 147z"/>
<path d="M10823 3255 c-36 -15 -73 -68 -73 -103 0 -31 25 -77 52 -96 12 -9 42
-16 66 -16 87 0 140 94 96 169 -30 50 -88 70 -141 46z"/>
<path d="M7308 3234 c-76 -41 -74 -159 2 -199 57 -30 127 -10 155 45 53 103
-55 210 -157 154z"/>
<path d="M2180 3193 c-61 -55 -48 -153 26 -188 68 -32 148 10 160 87 17 101
-110 169 -186 101z"/>
<path d="M10140 3202 c-72 -36 -86 -125 -28 -183 24 -23 38 -29 75 -29 38 0
50 5 79 34 28 28 34 42 34 76 0 55 -30 96 -78 110 -47 13 -41 13 -82 -8z"/>
<path d="M5302 3194 c-27 -19 -52 -65 -52 -96 0 -59 81 -127 133 -113 67 19
97 56 97 121 0 28 -8 44 -34 70 -28 28 -41 34 -78 34 -24 0 -54 -7 -66 -16z"/>
<path d="M5644 3200 c-67 -27 -86 -125 -35 -182 26 -29 36 -33 79 -33 57 0 86
20 109 73 37 88 -61 179 -153 142z"/>
<path d="M5922 3157 c-54 -30 -73 -109 -39 -161 63 -95 207 -51 207 64 0 34
-6 48 -34 76 -27 27 -42 34 -72 34 -22 -1 -49 -6 -62 -13z"/>
<path d="M6334 3121 c-61 -38 -68 -124 -15 -175 76 -73 191 -20 191 88 0 82
-104 133 -176 87z"/>
<path d="M6821 3061 c-27 -25 -31 -36 -31 -79 0 -43 5 -55 31 -81 26 -26 38
-31 79 -31 41 0 53 5 79 31 26 26 31 38 31 79 0 39 -5 54 -29 79 -25 27 -36
31 -79 31 -41 0 -55 -5 -81 -29z"/>
<path d="M7175 3033 c-33 -8 -74 -54 -81 -90 -20 -106 106 -177 187 -105 24
21 32 39 36 74 5 42 2 49 -28 81 -34 35 -75 50 -114 40z"/>
<path d="M6554 2986 c-28 -28 -34 -42 -34 -75 0 -76 80 -136 148 -110 65 25
97 90 72 150 -19 45 -56 69 -107 69 -38 0 -50 -5 -79 -34z"/>
<path d="M7454 3001 c-84 -51 -57 -188 42 -207 42 -8 100 20 119 57 26 49 19
97 -19 135 -40 40 -92 46 -142 15z"/>
<path d="M5473 2956 c-43 -37 -58 -84 -40 -128 23 -53 52 -73 109 -73 43 0 53
4 79 33 64 71 23 178 -72 189 -38 4 -50 1 -76 -21z"/>
<path d="M2791 2956 c-52 -29 -69 -121 -30 -169 64 -82 199 -37 202 67 2 89
-93 146 -172 102z"/>
<path d="M5773 2954 c-33 -16 -63 -66 -63 -104 0 -56 57 -110 117 -110 38 0
91 34 103 66 22 58 1 123 -50 149 -37 19 -67 19 -107 -1z"/>
<path d="M6112 2950 c-70 -43 -75 -131 -11 -185 46 -38 101 -35 145 9 28 28
34 41 34 78 0 50 -18 82 -60 103 -39 20 -69 19 -108 -5z"/>
<path d="M7714 2886 c-26 -26 -34 -42 -34 -71 0 -74 66 -134 131 -120 138 31
123 225 -18 225 -38 0 -50 -5 -79 -34z"/>
<path d="M3032 2867 c-34 -19 -55 -55 -56 -96 -2 -77 72 -134 145 -112 52 16
79 53 79 108 0 38 -5 50 -34 79 -27 27 -42 34 -72 34 -22 -1 -49 -6 -62 -13z"/>
<path d="M3293 2846 c-38 -17 -63 -61 -63 -112 0 -28 8 -44 34 -70 26 -26 42
-34 70 -34 53 0 95 25 113 67 40 97 -58 192 -154 149z"/>
<path d="M7000 2843 c-62 -19 -90 -56 -90 -119 0 -28 8 -44 34 -70 29 -29 41
-34 79 -34 139 0 154 194 17 223 -14 3 -32 3 -40 0z"/>
<path d="M6378 2814 c-74 -39 -77 -151 -6 -194 62 -37 138 -16 164 45 18 44
18 59 -2 100 -27 57 -100 80 -156 49z"/>
<path d="M6703 2795 c-36 -15 -73 -68 -73 -103 0 -31 25 -77 52 -96 12 -9 42
-16 66 -16 37 0 50 6 78 34 26 26 34 42 34 70 0 51 -23 90 -64 110 -41 19 -51
19 -93 1z"/>
<path d="M7290 2799 c-63 -26 -94 -91 -70 -150 30 -73 122 -94 181 -41 64 57
45 154 -37 188 -38 16 -40 16 -74 3z"/>
<path d="M7504 2696 c-27 -27 -34 -42 -34 -73 0 -81 76 -139 148 -112 65 25
97 90 72 150 -19 45 -56 69 -107 69 -38 0 -50 -5 -79 -34z"/>
<path d="M2815 2706 c-51 -22 -70 -52 -70 -108 0 -43 4 -53 33 -79 72 -64 178
-23 189 73 5 42 2 49 -28 81 -39 41 -81 52 -124 33z"/>
<path d="M3563 2686 c-38 -17 -63 -61 -63 -112 0 -28 8 -44 34 -70 26 -26 42
-34 70 -34 52 0 90 23 111 67 16 33 16 41 4 77 -24 68 -93 100 -156 72z"/>
<path d="M10617 2650 c-30 -24 -50 -78 -42 -112 6 -23 4 -24 -23 -20 -39 5
-88 -21 -107 -58 -55 -106 60 -213 161 -151 36 22 59 78 50 117 -6 23 -4 24
36 24 69 1 108 44 108 119 0 31 -7 46 -31 70 -26 26 -38 31 -78 31 -33 0 -56
-6 -74 -20z"/>
<path d="M3184 2612 c-29 -23 -44 -54 -44 -92 0 -67 43 -109 111 -110 56 0 93
25 109 75 15 44 -1 96 -37 125 -33 26 -109 27 -139 2z"/>
<path d="M6893 2578 c-46 -12 -83 -61 -83 -110 0 -32 7 -47 34 -74 61 -61 150
-44 183 34 36 87 -42 175 -134 150z"/>
<path d="M7094 2572 c-30 -24 -44 -55 -44 -97 0 -29 8 -45 34 -71 29 -29 41
-34 79 -34 54 0 91 26 107 75 15 44 -1 96 -37 125 -33 26 -109 27 -139 2z"/>
<path d="M10044 2556 c-26 -26 -34 -42 -34 -70 0 -73 47 -121 116 -119 75 2
126 73 105 144 -16 52 -53 79 -108 79 -38 0 -50 -5 -79 -34z"/>
<path d="M6561 2529 c-17 -17 -31 -40 -31 -52 0 -19 -2 -18 -19 9 -27 45 -59
64 -107 64 -80 0 -136 -88 -100 -159 47 -89 166 -87 207 4 10 22 19 33 19 24
0 -27 39 -68 74 -78 47 -12 82 -3 116 31 25 24 30 38 30 76 -1 73 -42 112
-119 112 -31 0 -46 -7 -70 -31z"/>
<path d="M7332 2490 c-40 -24 -64 -77 -56 -119 10 -47 66 -91 115 -91 33 0 47
6 75 34 28 28 34 41 34 78 0 50 -18 82 -60 103 -39 20 -69 19 -108 -5z"/>
<path d="M2963 2485 c-59 -25 -85 -92 -58 -150 21 -42 59 -65 111 -65 54 0
104 53 104 109 0 51 -24 89 -67 107 -40 17 -49 17 -90 -1z"/>
<path d="M2654 2476 c-44 -19 -64 -53 -64 -104 0 -37 6 -50 34 -78 38 -38 85
-45 134 -20 48 25 70 88 48 139 -25 61 -94 89 -152 63z"/>
<path d="M3433 2445 c-42 -18 -68 -59 -67 -107 l1 -39 -26 25 c-76 72 -191 20
-191 -87 0 -55 52 -107 107 -107 76 0 135 68 119 138 l-7 27 18 -21 c47 -56
119 -60 169 -10 28 28 34 41 34 78 0 52 -21 85 -66 104 -41 17 -50 17 -91 -1z"/>
<path d="M3689 2426 c-36 -21 -63 -79 -55 -120 8 -42 54 -85 98 -92 101 -17
169 110 100 187 -33 37 -100 49 -143 25z"/>
<path d="M3954 2371 c-37 -22 -59 -78 -49 -119 9 -38 53 -81 90 -88 104 -19
177 108 107 187 -36 41 -102 50 -148 20z"/>
<path d="M6783 2358 c-46 -12 -83 -61 -83 -110 0 -32 7 -47 34 -74 32 -32 50
-39 86 -34 11 1 8 -5 -8 -22 -37 -40 -45 -86 -23 -130 l19 -38 -33 6 c-65 12
-135 -48 -135 -116 0 -55 57 -110 115 -110 83 0 146 105 100 166 -21 28 -19
29 28 26 106 -9 161 126 81 196 -14 13 -39 25 -54 29 l-28 5 24 35 c27 41 30
72 10 112 -27 52 -77 74 -133 59z"/>
<path d="M11688 2343 c-35 -22 -52 -56 -51 -99 2 -75 73 -126 144 -105 52 16
79 53 79 108 0 38 -5 50 -34 79 -27 27 -42 34 -72 34 -22 0 -51 -8 -66 -17z"/>
<path d="M7076 2310 c-39 -12 -64 -37 -75 -75 -20 -73 29 -145 99 -145 78 0
120 41 120 117 0 47 -22 81 -66 99 -37 16 -38 16 -78 4z"/>
<path d="M4243 2286 c-53 -24 -79 -86 -60 -142 7 -20 5 -21 -36 -17 -57 7 -99
-15 -122 -63 -14 -31 -15 -43 -6 -75 12 -39 52 -79 78 -79 10 0 4 -12 -17 -36
-27 -31 -31 -43 -28 -78 3 -22 8 -49 12 -58 7 -15 3 -18 -24 -18 -75 0 -126
-81 -97 -152 51 -123 233 -77 215 54 -3 18 -8 41 -13 51 -5 13 -3 16 8 11 25
-9 85 23 107 58 35 55 12 132 -47 158 l-28 13 28 31 c26 27 29 36 25 82 l-4
51 46 -5 c41 -4 51 -1 79 24 39 36 52 78 37 123 -20 62 -93 94 -153 67z"/>
<path d="M2770 2263 c-30 -11 -70 -57 -76 -89 -8 -43 20 -100 59 -121 45 -23
105 -12 140 27 75 84 -17 222 -123 183z"/>
<path d="M6520 2242 c-110 -55 -73 -212 50 -212 57 0 110 50 110 104 0 52 -25
95 -65 112 -44 18 -53 18 -95 -4z"/>
<path d="M7303 2205 c-106 -46 -65 -215 52 -215 119 0 158 171 50 216 -42 17
-61 17 -102 -1z"/>
<path d="M3028 2184 c-53 -28 -73 -101 -42 -154 46 -78 159 -78 199 0 53 103
-55 210 -157 154z"/>
<path d="M3519 2162 c-45 -40 -52 -106 -15 -149 37 -43 84 -58 128 -40 53 23
73 52 73 109 0 43 -4 53 -33 79 -45 40 -108 41 -153 1z"/>
<path d="M3798 2164 c-76 -41 -74 -159 2 -199 57 -30 127 -10 155 45 52 101
-57 209 -157 154z"/>
<path d="M3294 2071 c-116 -71 -15 -255 108 -197 65 31 85 102 48 164 -33 53
-99 68 -156 33z"/>
<path d="M2853 2021 c-40 -25 -53 -49 -53 -98 0 -121 164 -155 216 -45 46 98
-70 201 -163 143z"/>
<path d="M7034 1964 c-77 -38 -84 -148 -12 -198 66 -47 178 13 178 94 0 39
-31 88 -65 104 -41 20 -61 20 -101 0z"/>
<path d="M7293 1961 c-40 -25 -53 -49 -53 -98 0 -45 20 -77 60 -98 48 -25 86
-19 128 19 32 30 37 40 37 80 0 38 -5 51 -31 77 -40 40 -96 48 -141 20z"/>
<path d="M6454 1951 c-68 -29 -86 -126 -35 -183 26 -29 36 -33 79 -33 40 0 56
5 76 24 73 69 37 186 -61 197 -21 2 -48 0 -59 -5z"/>
<path d="M3818 1910 c-75 -58 -55 -165 36 -200 65 -24 146 37 146 112 0 32 -7
47 -34 74 -29 29 -41 34 -79 34 -29 0 -53 -7 -69 -20z"/>
<path d="M3593 1903 c-12 -2 -36 -20 -53 -39 -44 -50 -42 -104 4 -150 29 -29
41 -34 79 -34 132 0 159 172 34 219 -16 6 -31 10 -35 10 -4 -1 -17 -4 -29 -6z"/>
<path d="M11294 1876 c-29 -29 -34 -41 -34 -79 0 -136 182 -159 220 -27 19 67
-39 140 -112 140 -32 0 -47 -7 -74 -34z"/>
<path d="M3074 1871 c-37 -22 -59 -78 -49 -119 9 -38 53 -81 91 -88 42 -8 100
20 119 57 26 49 19 97 -19 135 -40 40 -92 46 -142 15z"/>
<path d="M3322 1794 c-59 -41 -68 -117 -19 -171 30 -32 40 -36 81 -36 37 0 52
5 76 28 76 73 29 195 -74 195 -23 0 -52 -7 -64 -16z"/>
<path d="M11739 1767 c-68 -45 -69 -134 -4 -185 44 -35 99 -30 141 12 28 28
34 41 34 78 0 50 -18 82 -60 103 -40 21 -72 19 -111 -8z"/>
<path d="M7745 1773 c-33 -8 -74 -54 -81 -90 -20 -106 106 -177 186 -105 54
47 49 143 -9 179 -22 14 -71 22 -96 16z"/>
<path d="M11027 1759 c-39 -30 -53 -85 -34 -131 50 -120 217 -83 217 48 0 28
-8 44 -34 70 -29 29 -41 34 -79 34 -30 0 -53 -7 -70 -21z"/>
<path d="M6523 1701 c-40 -25 -53 -49 -53 -101 0 -34 6 -48 34 -76 46 -46 100
-48 149 -4 41 35 52 79 33 123 -29 69 -103 96 -163 58z"/>
<path d="M6806 1679 c-104 -90 2 -247 124 -184 106 55 62 215 -59 215 -20 0
-43 -11 -65 -31z"/>
<path d="M11489 1685 c-27 -14 -59 -69 -59 -100 0 -49 67 -115 118 -115 61 0
112 54 112 121 0 33 -6 47 -34 75 -27 27 -42 34 -72 34 -22 -1 -51 -7 -65 -15z"/>
<path d="M7089 1675 c-50 -27 -67 -116 -31 -164 10 -14 36 -32 58 -40 74 -26
147 28 146 108 -1 69 -46 111 -115 111 -18 -1 -44 -7 -58 -15z"/>
<path d="M3760 1659 c-63 -26 -94 -91 -70 -150 19 -45 56 -69 107 -69 38 0 50
5 79 34 26 26 34 42 34 71 0 48 -26 91 -66 110 -37 17 -49 18 -84 4z"/>
<path d="M11224 1606 c-27 -27 -34 -42 -34 -74 0 -73 73 -131 140 -112 70 20
106 88 80 151 -19 45 -56 69 -107 69 -38 0 -50 -5 -79 -34z"/>
<path d="M3124 1566 c-101 -101 37 -254 150 -165 58 46 54 142 -8 180 -50 31
-102 25 -142 -15z"/>
<path d="M3444 1546 c-28 -28 -34 -41 -34 -78 0 -50 18 -82 60 -103 39 -20 69
-19 107 5 40 24 56 53 56 104 0 33 -6 45 -36 73 -52 47 -105 47 -153 -1z"/>
<path d="M10807 1559 c-39 -30 -53 -85 -34 -131 19 -46 56 -71 106 -70 88 1
137 85 99 167 -25 54 -121 74 -171 34z"/>
<path d="M11906 1509 c-65 -19 -97 -79 -76 -144 16 -49 53 -75 107 -75 38 0
50 5 79 34 47 47 48 102 2 150 -37 38 -69 48 -112 35z"/>
<path d="M11622 1462 c-40 -37 -49 -82 -25 -130 55 -114 213 -76 213 52 0 30
-7 45 -34 72 -29 29 -41 34 -79 34 -35 0 -51 -6 -75 -28z"/>
<path d="M6587 1459 c-82 -64 -37 -199 67 -202 69 -2 116 46 116 119 0 28 -8
44 -34 70 -29 29 -41 34 -79 34 -30 0 -53 -7 -70 -21z"/>
<path d="M11048 1463 c-63 -40 -73 -126 -19 -177 52 -49 135 -42 175 16 26 37
21 103 -12 139 -35 39 -102 49 -144 22z"/>
<path d="M10625 1451 c-27 -12 -51 -40 -65 -75 -15 -39 2 -88 43 -122 26 -22
38 -25 76 -21 132 15 137 209 6 222 -22 3 -49 1 -60 -4z"/>
<path d="M6928 1413 c-51 -32 -65 -118 -27 -166 64 -82 199 -37 202 67 3 92
-96 148 -175 99z"/>
<path d="M3684 1386 c-29 -29 -34 -41 -34 -79 0 -147 219 -150 223 -3 2 69
-46 116 -119 116 -28 0 -44 -8 -70 -34z"/>
<path d="M11367 1400 c-104 -82 -1 -251 118 -194 42 20 65 58 65 110 0 28 -8
44 -34 70 -29 29 -41 34 -79 34 -29 0 -53 -7 -70 -20z"/>
<path d="M3102 1334 c-40 -20 -62 -60 -62 -110 0 -52 53 -104 107 -104 87 0
145 81 110 155 -30 62 -97 88 -155 59z"/>
<path d="M3373 1318 c-78 -21 -109 -119 -55 -178 53 -60 136 -55 179 9 27 39
29 71 9 110 -27 52 -77 74 -133 59z"/>
<path d="M6703 1236 c-41 -34 -58 -83 -43 -122 26 -67 90 -99 151 -74 73 30
94 122 41 181 -40 45 -106 52 -149 15z"/>
<path d="M10885 1251 c-27 -11 -51 -40 -65 -75 -24 -65 37 -146 112 -146 32 0
47 7 74 34 28 28 34 41 34 78 0 50 -18 82 -60 103 -32 16 -64 18 -95 6z"/>
<path d="M11138 1231 c-29 -26 -33 -36 -33 -79 0 -57 20 -86 73 -109 44 -18
91 -3 128 40 22 26 25 38 21 76 -11 95 -118 136 -189 72z"/>
<path d="M11928 1243 c-67 -43 -73 -129 -12 -182 39 -35 78 -40 124 -16 66 34
82 120 32 176 -35 39 -102 49 -144 22z"/>
<path d="M11624 1196 c-26 -26 -34 -42 -34 -70 0 -110 120 -164 193 -88 73 77
21 192 -86 192 -31 0 -46 -7 -73 -34z"/>
<path d="M3573 1200 c-40 -24 -53 -48 -53 -100 0 -34 6 -48 34 -76 44 -44 99
-47 145 -9 64 54 59 142 -11 185 -41 25 -74 25 -115 0z"/>
<path d="M10633 1145 c-106 -46 -65 -215 52 -215 118 0 157 163 51 214 -41 19
-61 20 -103 1z"/>
<path d="M11377 1129 c-82 -64 -37 -199 67 -202 69 -2 116 46 116 119 0 28 -8
44 -34 70 -29 29 -41 34 -79 34 -30 0 -53 -7 -70 -21z"/>
<path d="M3104 1056 c-29 -29 -34 -41 -34 -79 0 -133 172 -159 220 -33 24 65
-37 146 -112 146 -32 0 -47 -7 -74 -34z"/>
<path d="M11794 982 c-61 -39 -69 -120 -17 -174 76 -79 205 -14 190 95 -11 81
-103 122 -173 79z"/>
<path d="M3378 963 c-67 -43 -73 -129 -12 -182 39 -35 78 -40 124 -16 66 34
82 120 32 176 -35 39 -102 49 -144 22z"/>
<path d="M11552 914 c-97 -49 -73 -196 35 -211 112 -15 175 113 94 191 -35 34
-86 42 -129 20z"/>
<path d="M3114 801 c-119 -72 -16 -256 110 -196 64 31 84 101 46 163 -33 53
-99 68 -156 33z"/>
<path d="M11671 687 c-78 -27 -99 -127 -40 -186 26 -26 38 -31 79 -31 40 0 53
5 78 30 87 87 0 227 -117 187z"/>
<path d="M3128 523 c-63 -40 -73 -126 -19 -177 76 -73 191 -20 191 88 0 80
-104 133 -172 89z"/>
<path d="M12632 313 c-80 -39 -81 -157 -2 -198 103 -53 211 57 153 156 -18 30
-67 59 -100 59 -10 0 -33 -8 -51 -17z"/>
<path d="M3124 196 c-29 -29 -34 -41 -34 -80 0 -36 6 -52 29 -78 43 -48 119
-48 162 0 23 26 29 42 29 78 0 39 -5 51 -34 80 -28 28 -42 34 -76 34 -34 0
-48 -6 -76 -34z"/>
</g>
</svg>
